HIERARCHY
ROOT hip
{
	OFFSET 0.000000 0.000000 0.000000 
	CHANNELS 6 Xposition Yposition Zposition Xrotation Zrotation Yrotation
	JOINT abdomen
	{
		OFFSET 0.000000 3.402643 0.000000 
		CHANNELS 3 Xrotation Zrotation Yrotation
		JOINT chest
		{
			OFFSET 0.000000 8.438565 -0.680529 
			CHANNELS 3 Xrotation Zrotation Yrotation
			JOINT neck
			{
				OFFSET 0.000000 10.207942 -0.272212 
				CHANNELS 3 Xrotation Zrotation Yrotation
				JOINT head
				{
					OFFSET 0.000000 3.130431 0.000000 
					CHANNELS 3 Xrotation Zrotation Yrotation
					End Site
					{
						OFFSET 0.000000 3.130435 0.000000 
					}
				}
			}
			JOINT lCollar
			{
				OFFSET 3.470700 6.669187 -0.816635 
				CHANNELS 3 Yrotation Zrotation Xrotation
				JOINT lShldr
				{
					OFFSET 3.198488 0.000000 0.000000 
					CHANNELS 3 Zrotation Yrotation Xrotation
					JOINT lForeArm
					{
						OFFSET 10.139888 0.000000 0.000000 
						CHANNELS 3 Yrotation Zrotation Xrotation
						JOINT lHand
						{
							OFFSET 8.370511 0.000000 0.000000 
							CHANNELS 3 Zrotation Yrotation Xrotation
							End Site
							{
								OFFSET 4.083176 0.000000 0.000000 
							}
						}
					}
				}
			}
			JOINT rCollar
			{
				OFFSET -3.470700 6.669187 -0.816635 
				CHANNELS 3 Yrotation Zrotation Xrotation
				JOINT rShldr
				{
					OFFSET -3.198488 0.000000 0.000000 
					CHANNELS 3 Zrotation Yrotation Xrotation
					JOINT rForeArm
					{
						OFFSET -10.139888 0.000000 0.000000 
						CHANNELS 3 Yrotation Zrotation Xrotation
						JOINT rHand
						{
							OFFSET -8.370511 0.000000 0.000000 
							CHANNELS 3 Zrotation Yrotation Xrotation
							End Site
							{
								OFFSET -4.083176 0.000000 0.000000 
							}
						}
					}
				}
			}
		}
	}
	JOINT lThigh
	{
		OFFSET 5.308129 -1.633274 1.361059 
		CHANNELS 3 Xrotation Zrotation Yrotation
		JOINT lShin
		{
			OFFSET -2.041588 -20.007561 0.000000 
			CHANNELS 3 Xrotation Zrotation Yrotation
			JOINT lFoot
			{
				OFFSET 0.000000 -19.190928 -1.224953 
				CHANNELS 3 Xrotation Yrotation Zrotation
				End Site
				{
					OFFSET 0.000000 -2.449906 4.627600 
				}
			}
		}
	}
	JOINT rThigh
	{
		OFFSET -5.308129 -1.633274 1.361059 
		CHANNELS 3 Xrotation Zrotation Yrotation
		JOINT rShin
		{
			OFFSET 2.041588 -20.007561 0.000000 
			CHANNELS 3 Xrotation Zrotation Yrotation
			JOINT rFoot
			{
				OFFSET 0.000000 -19.190928 -1.224953 
				CHANNELS 3 Xrotation Yrotation Zrotation
				End Site
				{
					OFFSET 0.000000 -2.449906 4.627600 
				}
			}
		}
	}
}
MOTION
Frames: 6
Frame Time: 0.033333
3.045653 45.181232 -0.114265 5.234375 2.539063 -3.212860 10.370376 -8.712459 -6.345483 0.556640 10.175780 6.191406 -9.136351 -3.502297 -7.770517 1.240234 -4.960937 -7.363283 2.000000 -2.000000 0.000000 -2.451172 -9.179688 -39.375000 -0.027198 -1.297494 2.448519 -1.993715 -17.283470 22.150560 -2.000000 2.000000 0.000000 2.314453 -6.982421 -25.263672 32.248375 0.833214 2.684419 6.590683 7.522479 -0.355591 -24.412462 13.124042 5.330601 45.383503 -2.724244 1.074489 -23.868517 1.418955 -10.836044 -23.260365 -18.377869 -0.626014 45.450676 2.578681 -9.662808 -23.364859 -2.890832 16.814535 
3.385177 44.930176 -1.018196 6.347656 3.906250 -3.222656 10.370376 -8.712459 -6.345483 4.052734 9.179688 6.796876 -8.909817 -4.030210 -8.857801 -0.498047 -5.195313 -8.505860 2.000000 -2.000000 0.000000 -11.416016 -4.843750 -33.349609 -15.816538 -1.058255 2.522097 0.213873 -12.814900 15.306659 -2.000000 2.000000 0.000000 10.380859 -13.857422 -20.793354 48.688831 0.702696 2.901642 1.511317 -0.185975 -7.228142 -27.348042 11.354739 5.202015 46.612663 -2.685281 1.903051 -23.300730 1.605494 -10.556357 -27.097143 -19.988560 0.383392 47.482143 2.488125 -9.884111 -22.791946 -2.889866 17.224400 
3.657375 44.502312 -2.301669 9.062500 4.111328 -4.755859 10.370376 -8.712459 -6.345483 6.728517 9.013672 7.189029 -8.829681 -3.845442 -8.479987 -4.052735 -5.537109 -7.832033 2.000000 -2.000000 0.000000 -21.787109 1.093750 -29.531248 -29.592945 -0.894055 2.649112 3.455009 -9.325583 10.103711 -2.000000 2.000000 0.000000 19.580078 -16.874998 -20.537111 57.621414 0.655451 3.035723 0.105069 -2.712739 -7.516401 -32.947006 11.307784 4.461312 49.239819 -2.529677 2.301978 -23.255663 1.836563 -10.465961 -33.791622 -19.098108 1.659171 50.159813 2.302988 -10.549896 -21.517025 -3.879880 16.929388 
4.083857 43.670738 -3.548018 12.841797 5.166016 -4.764746 10.370376 -8.712459 -6.345483 8.056643 8.339844 7.393993 -8.785141 -3.795776 -8.280100 -6.933595 -4.570313 -7.871095 2.000000 -2.000000 0.000000 -32.802734 5.390625 -23.554686 -45.467216 -0.744633 2.855397 7.923257 -5.192416 5.875861 -2.000000 2.000000 0.000000 30.361328 -20.869141 -22.070314 61.321301 0.661660 3.094786 -1.276441 0.412761 -5.078807 -41.098679 9.637418 2.870534 53.401131 -2.267239 2.102094 -23.599634 2.108690 -9.949248 -42.606258 -18.524979 3.463754 55.088676 1.971263 -15.460974 -20.276808 -4.595692 18.378336 
4.337054 42.524059 -4.689917 16.328125 6.142579 -4.198174 10.370376 -8.712459 -6.345483 9.707032 8.017578 7.628315 -8.643583 -4.108364 -8.984337 -11.416016 -4.970703 -8.427735 2.000000 -2.000000 0.000000 -43.886723 7.587890 -18.740234 -57.806515 -0.683515 3.057097 10.081827 -2.322870 6.999897 -2.000000 2.000000 0.000000 43.125000 -23.740232 -23.500027 66.611938 0.655168 3.201987 -7.068282 -1.335159 -6.554977 -48.847393 8.203079 2.022778 58.756580 -1.957846 -0.545804 -25.346476 2.661171 -8.610353 -50.946701 -18.456795 5.492220 60.704987 1.570381 -18.157774 -20.490932 -4.612885 19.815359 
4.691553 40.925098 -5.612725 19.072266 8.017768 -1.240264 10.370376 -8.712459 -6.345483 11.552734 7.548829 7.862611 -8.411827 -4.999701 -10.928354 -16.259768 -4.453125 -10.781251 2.000000 -2.000000 0.000000 -52.216801 3.056641 -9.560546 -61.213657 -0.670818 3.105234 15.401706 -1.233032 6.418112 -2.000000 2.000000 0.000000 57.314453 -26.044922 -30.502331 70.341133 0.661372 3.261161 -8.613062 -1.736820 -2.203018 -56.318298 3.817687 -0.198710 64.956619 -1.480862 -1.920735 -27.582941 2.442852 -8.244130 -58.689774 -20.976210 9.224165 67.816528 1.062971 -18.198338 -22.656120 -4.428821 22.327188 
